<svg xmlns="http://www.w3.org/2000/svg" viewBox="0 0 64 64">
  <rect width="64" height="64" fill="none"/>
  <ellipse cx="32" cy="55" rx="18" ry="5" fill="#3f6e32" opacity="0.45"/>
  <path d="M31 45h4v10h-4z" fill="#6f4829"/>
  <path d="M21 24c4-8 18-12 25-4 8-5 16 5 12 13 4 6 0 14-8 16-1 6-10 10-17 7-9 5-19-2-19-11-8-4-9-15-1-21 0-4 3-8 8-8z" fill="#2f7b3b"/>
  <path d="M24 28c3-5 10-8 16-6 5-4 12 1 11 7 5 4 4 11-2 14-2 5-9 7-14 4-7 3-14-2-14-9-5-3-5-10 1-13 0-2 1-4 2-5z" fill="#4fa55a"/>
  <circle cx="24" cy="37" r="3.4" fill="#a9192b"/>
  <circle cx="33" cy="31" r="3.1" fill="#c72639"/>
  <circle cx="41" cy="39" r="3.5" fill="#a9192b"/>
  <circle cx="29" cy="43" r="2.8" fill="#cf2f43"/>
  <circle cx="39" cy="29" r="2.5" fill="#cf2f43"/>
  <path d="M31 18c1-5 5-9 9-11" fill="none" stroke="#215d2b" stroke-linecap="round" stroke-width="3"/>
</svg>
